<svg xmlns="http://www.w3.org/2000/svg" width="460" height="460" font-family="system-ui,sans-serif">
  <rect width="460" height="460" fill="#fafaf7"/>
  <line x1="230" y1="230" x2="400" y2="60" stroke="#c9c6ba" stroke-width="1.5" stroke-dasharray="5 4"/>
  <line x1="60" y1="60" x2="60" y2="400" stroke="#16181a" stroke-width="1.5"/>
  <line x1="60" y1="400" x2="400" y2="400" stroke="#16181a" stroke-width="1.5"/>
  <text x="230" y="418" font-size="11" text-anchor="middle" fill="#676d73">50%</text><text x="48" y="234" font-size="11" text-anchor="end" fill="#676d73">50%</text><text x="264" y="418" font-size="11" text-anchor="middle" fill="#676d73">60%</text><text x="48" y="200" font-size="11" text-anchor="end" fill="#676d73">60%</text><text x="298" y="418" font-size="11" text-anchor="middle" fill="#676d73">70%</text><text x="48" y="166.00000000000003" font-size="11" text-anchor="end" fill="#676d73">70%</text><text x="332" y="418" font-size="11" text-anchor="middle" fill="#676d73">80%</text><text x="48" y="132" font-size="11" text-anchor="end" fill="#676d73">80%</text><text x="366" y="418" font-size="11" text-anchor="middle" fill="#676d73">90%</text><text x="48" y="98" font-size="11" text-anchor="end" fill="#676d73">90%</text><text x="400" y="418" font-size="11" text-anchor="middle" fill="#676d73">100%</text><text x="48" y="64" font-size="11" text-anchor="end" fill="#676d73">100%</text><polyline points="271.7,205.7 305.2,286.7" fill="none" stroke="#24559c" stroke-width="2"/><circle cx="271.7" cy="205.7" r="15.2" fill="#24559c" fill-opacity="0.75"/><circle cx="305.2" cy="286.7" r="8.8" fill="#24559c" fill-opacity="0.75"/>
  <text x="230" y="446" font-size="12" text-anchor="middle" fill="#16181a">predicted confidence</text>
  <text x="18" y="230" font-size="12" text-anchor="middle" fill="#16181a" transform="rotate(-90 18 230)">actual hit-rate</text>
  <text x="230" y="26" font-size="14" font-weight="700" text-anchor="middle" fill="#16181a">Provenn signal calibration</text>
  <text x="230" y="43" font-size="11" text-anchor="middle" fill="#676d73">10 signals · hit-rate 50% · mean Brier 0.289 · dashed = perfect calibration</text>
</svg>